<?xml version="1.0" encoding="utf-8"?>
<svg viewBox="0 0 256 256" width="256px" height="256px" xmlns="http://www.w3.org/2000/svg">
  <circle style="fill: rgb(49, 196, 141);" cx="128" cy="128" r="128"/>
  <path d="M 129.614 186.317 L 81.784 186.317 L 81.784 171.307 L 92.844 168.957 L 92.844 97.107 L 81.784 94.767 L 81.784 79.677 L 92.844 79.677 L 133.644 79.677 C 142.137 79.677 149.507 81.167 155.754 84.147 C 162.007 87.12 166.831 91.257 170.224 96.557 C 173.617 101.857 175.314 108.024 175.314 115.057 C 175.314 122.084 173.617 128.234 170.224 133.507 C 166.831 138.78 162.007 142.884 155.754 145.817 C 149.507 148.744 142.137 150.207 133.644 150.207 L 118.554 150.207 L 118.554 168.957 L 129.614 171.307 L 129.614 186.317 Z M 118.554 99.307 L 118.554 130.507 L 133.644 130.507 C 138.864 130.507 142.831 129.077 145.544 126.217 C 148.251 123.364 149.604 119.69 149.604 115.197 C 149.604 110.557 148.251 106.75 145.544 103.777 C 142.831 100.797 138.864 99.307 133.644 99.307 L 118.554 99.307 Z" transform="matrix(1, 0, 0, 1, 0, 0)" style="fill: rgb(255, 255, 255); white-space: pre;"/>
</svg>