<?xml version="1.0" encoding="utf-8"?>
<svg viewBox="0 0 256 256" width="256px" height="256px" xmlns="http://www.w3.org/2000/svg">
  <circle style="fill: rgb(255, 138, 76);" cx="128" cy="128" r="128"/>
  <path d="M 130.996 187.865 C 122.309 187.865 114.596 187.035 107.856 185.375 C 101.116 183.715 94.403 180.588 87.716 175.995 L 87.716 148.315 L 107.566 148.315 L 109.756 162.525 C 111.323 164.278 114.083 165.755 118.036 166.955 C 121.989 168.148 126.309 168.745 130.996 168.745 C 134.269 168.745 137.006 168.342 139.206 167.535 C 141.399 166.728 143.059 165.545 144.186 163.985 C 145.306 162.425 145.866 160.545 145.866 158.345 C 145.866 156.245 145.343 154.365 144.296 152.705 C 143.243 151.045 141.519 149.472 139.126 147.985 C 136.739 146.492 133.519 144.965 129.466 143.405 C 120.333 140.478 112.836 137.498 106.976 134.465 C 101.116 131.438 96.759 127.852 93.906 123.705 C 91.046 119.552 89.616 114.398 89.616 108.245 C 89.616 102.338 91.303 97.175 94.676 92.755 C 98.043 88.335 102.679 84.858 108.586 82.325 C 114.499 79.785 121.263 78.442 128.876 78.295 C 137.569 78.095 145.259 78.962 151.946 80.895 C 158.639 82.822 164.549 85.738 169.676 89.645 L 169.676 115.355 L 150.626 115.355 L 147.626 101.075 C 145.966 100.242 143.599 99.485 140.526 98.805 C 137.446 98.118 134.173 97.775 130.706 97.775 C 127.726 97.775 125.079 98.165 122.766 98.945 C 120.446 99.725 118.613 100.898 117.266 102.465 C 115.926 104.025 115.256 105.978 115.256 108.325 C 115.256 110.225 115.816 111.922 116.936 113.415 C 118.063 114.902 120.043 116.392 122.876 117.885 C 125.703 119.372 129.656 121.092 134.736 123.045 C 146.843 126.612 156.036 131.068 162.316 136.415 C 168.589 141.762 171.726 149.022 171.726 158.195 C 171.726 164.495 170.016 169.855 166.596 174.275 C 163.176 178.695 158.416 182.065 152.316 184.385 C 146.209 186.705 139.103 187.865 130.996 187.865 Z" transform="matrix(1, 0, 0, 1, 0, 0)" style="fill: rgb(255, 255, 255); white-space: pre;"/>
</svg>